<svg version="1.1" viewBox="0.0 0.0 755.9055118110236 755.9055118110236" fill="none" stroke="none" stroke-linecap="square" stroke-miterlimit="10" xmlns:xlink="http://www.w3.org/1999/xlink" xmlns="http://www.w3.org/2000/svg"><clipPath id="p.0"><path d="m0 0l755.9055 0l0 755.9055l-755.9055 0l0 -755.9055z" clip-rule="nonzero"/></clipPath><g clip-path="url(#p.0)"><path fill="#000000" fill-opacity="0.0" d="m0 0l755.9055 0l0 755.9055l-755.9055 0z" fill-rule="evenodd"/><path fill="#000000" fill-opacity="0.0" d="m178.89764 377.95276l0 0c0 -111.73547 89.119995 -202.31496 199.05511 -202.31496l0 0c52.792694 0 103.42316 21.315262 140.75323 59.256668c37.33008 37.941406 58.30188 89.40103 58.30188 143.05829l0 0c0 111.73547 -89.120026 202.31494 -199.05511 202.31494l0 0c-109.93512 0 -199.05511 -90.57947 -199.05511 -202.31494z" fill-rule="evenodd"/><path stroke="#ffffff" stroke-width="16.0" stroke-linejoin="round" stroke-linecap="butt" d="m178.89764 377.95276l0 0c0 -111.73547 89.119995 -202.31496 199.05511 -202.31496l0 0c52.792694 0 103.42316 21.315262 140.75323 59.256668c37.33008 37.941406 58.30188 89.40103 58.30188 143.05829l0 0c0 111.73547 -89.120026 202.31494 -199.05511 202.31494l0 0c-109.93512 0 -199.05511 -90.57947 -199.05511 -202.31494z" fill-rule="evenodd"/><path fill="#000000" fill-opacity="0.0" d="m95.84209 295.6999l102.708145 -34.708984l5.0477753 -98.37761l105.82866 26.092041l68.52609 -76.92581l68.52606 76.92581l105.828674 -26.092041l5.0477905 98.37761l102.70813 34.708984l-60.357788 82.25287l60.357788 82.25284l-102.70813 34.709015l-5.0477905 98.377625l-105.828674 -26.092041l-68.52606 76.92578l-68.52609 -76.92578l-105.82866 26.092041l-5.0477753 -98.377625l-102.708145 -34.709015l60.357788 -82.25284z" fill-rule="evenodd"/><path stroke="#ffffff" stroke-width="12.0" stroke-linejoin="round" stroke-linecap="butt" d="m95.84209 295.6999l102.708145 -34.708984l5.0477753 -98.37761l105.82866 26.092041l68.52609 -76.92581l68.52606 76.92581l105.828674 -26.092041l5.0477905 98.37761l102.70813 34.708984l-60.357788 82.25287l60.357788 82.25284l-102.70813 34.709015l-5.0477905 98.377625l-105.828674 -26.092041l-68.52606 76.92578l-68.52609 -76.92578l-105.82866 26.092041l-5.0477753 -98.377625l-102.708145 -34.709015l60.357788 -82.25284z" fill-rule="evenodd"/><path fill="#000000" fill-opacity="0.0" d="m253.2441 322.95215l0 0c0 -9.023224 7.314743 -16.337982 16.337967 -16.337982l216.7414 0c4.3330994 0 8.4887085 1.7213135 11.552673 4.7852783c3.0639648 3.0639648 4.7852783 7.2196045 4.7852783 11.552704l0 110.00122c0 9.023224 -7.3147583 16.337982 -16.337952 16.337982l-216.7414 0l0 0c-9.023224 0 -16.337967 -7.3147583 -16.337967 -16.337982z" fill-rule="evenodd"/><path stroke="#ffffff" stroke-width="12.0" stroke-linejoin="round" stroke-linecap="butt" d="m253.2441 322.95215l0 0c0 -9.023224 7.314743 -16.337982 16.337967 -16.337982l216.7414 0c4.3330994 0 8.4887085 1.7213135 11.552673 4.7852783c3.0639648 3.0639648 4.7852783 7.2196045 4.7852783 11.552704l0 110.00122c0 9.023224 -7.3147583 16.337982 -16.337952 16.337982l-216.7414 0l0 0c-9.023224 0 -16.337967 -7.3147583 -16.337967 -16.337982z" fill-rule="evenodd"/><path fill="#000000" fill-opacity="0.0" d="m334.92914 377.95276l0 0c0 -24.36142 19.26233 -44.11023 43.02362 -44.11023l0 0c11.4105835 0 22.35379 4.6473083 30.422302 12.919586c8.068481 8.272278 12.601318 19.491882 12.601318 31.190643l0 0c0 24.36142 -19.26233 44.11023 -43.02362 44.11023l0 0c-23.761292 0 -43.02362 -19.74881 -43.02362 -44.11023z" fill-rule="evenodd"/><path stroke="#ffffff" stroke-width="12.0" stroke-linejoin="round" stroke-linecap="butt" d="m334.92914 377.95276l0 0c0 -24.36142 19.26233 -44.11023 43.02362 -44.11023l0 0c11.4105835 0 22.35379 4.6473083 30.422302 12.919586c8.068481 8.272278 12.601318 19.491882 12.601318 31.190643l0 0c0 24.36142 -19.26233 44.11023 -43.02362 44.11023l0 0c-23.761292 0 -43.02362 -19.74881 -43.02362 -44.11023z" fill-rule="evenodd"/><path fill="#000000" fill-opacity="0.0" d="m320.77167 306.61417l10.48819 -41.95276l93.3858 0l10.48819 41.95276z" fill-rule="evenodd"/><path stroke="#ffffff" stroke-width="12.0" stroke-linejoin="round" stroke-linecap="butt" d="m320.77167 306.61417l10.48819 -41.95276l93.3858 0l10.48819 41.95276z" fill-rule="evenodd"/></g></svg>